# xmcd
#
# Track frame offsets:
#	150
#	10605
#	20694
#	30463
#	40804
#	51072
#	58086
#	68681
#	78007
#	90363
#	97525
#	107558
#	116865
#	127278
#	137628
#	146661
#	158266
#	167192
#	176810
#	187823
#	197924
#	208796
#	220624
#	231518
#	239457
#	250591
#	263313
#	275200
#	283250
#	293379
#	305687
#	318192
#	331251
#	344955
#
# Disc length: 4752 seconds
#
# Revision: 1
# Processed by: cddbd v1.5.2PL0 Copyright (c) Steve Scherf et al.
# Submitted via: EZCDAudioConverter 7.0.6.1
#
DISCID=e5128e22
DTITLE=Various Artist - Buzzsaw Joint Cuts 3 and 4
DYEAR=2017
DGENRE=
TTITLE0=Phil Campos - Street Fight
TTITLE1=Glenn and Christy - Wombat Twist
TTITLE2=The Hi-Fives - Fujikami The Warrior
TTITLE3=The Space Men - Martian Chant
TTITLE4=D.C. Washington - The Mohawk
TTITLE5=The Fables - Cleopatra 30 B.C.
TTITLE6=Lenny Troy - Chinese Junk
TTITLE7=Honey and The Bees - Almost Eighteen
TTITLE8=The New Starts - Ali Baba's Tent
TTITLE9=The Jokers - Wing Ding
TTITLE10=Big Brown - Menin Aeide Thea
TTITLE11=Jack Franklin and The Rock-Its - Beat History
TTITLE12=Buddy Bow - Twisting In The Jungle
TTITLE13=Eddie Hill - Monkey Business
TTITLE14=Ronny Goode - Totem Pole
TTITLE15=Lee Richards - Cha-Cha-Cha In Old Hong Kong
TTITLE16=Marc Haven and The Aquarians - Hey Señorita
TTITLE17=Al Nathan - Days Are Numbered
TTITLE18=Bailey's Nervous Kats - Cobra
TTITLE19=Bobby Towers - Bondage Of Love
TTITLE20=Jean Kassapian - La La La
TTITLE21=Berlingeri and His Orchestra - Lolita
TTITLE22=Troy Talton - Strange Desire
TTITLE23=Cris Stamos - Gypsy Love
TTITLE24=The Schulman Kids - Summertime
TTITLE25=Tito Rodriguez and His Orchestra - Taboo
TTITLE26=Hannah Dean - Strange Man
TTITLE27=Jeri Southern - Señor Blues
TTITLE28=Yvonne Baker and The Sensations - Eyes
TTITLE29=The Drivers - Dangerous Lips
TTITLE30=The Hollywood Flames - Let's Talk It Over
TTITLE31=The Stars Of Faith - Mean Old World 
TTITLE32=Bobbie Bolden - Hall Of Shame
TTITLE33=Maxine Harris - It's A Lonesome Old Town
EXTD=
EXTT0=
EXTT1=
EXTT2=
EXTT3=
EXTT4=
EXTT5=
EXTT6=
EXTT7=
EXTT8=
EXTT9=
EXTT10=
EXTT11=
EXTT12=
EXTT13=
EXTT14=
EXTT15=
EXTT16=
EXTT17=
EXTT18=
EXTT19=
EXTT20=
EXTT21=
EXTT22=
EXTT23=
EXTT24=
EXTT25=
EXTT26=
EXTT27=
EXTT28=
EXTT29=
EXTT30=
EXTT31=
EXTT32=
EXTT33=
PLAYORDER=
